<svg data-v-423bf9ae="" xmlns="http://www.w3.org/2000/svg" viewBox="0 0 290.23017534354426 60" class="font"><!----><!----><!----><g data-v-423bf9ae="" id="9dcb819a-58fa-4a9f-8a2e-e040d670920d" fill="black" transform="matrix(5.11508929781524,0,0,5.11508929781524,-4.654735193660628,-27.877236174304358)"><path d="M4.09 11.96L3.35 11.96L3.35 14.64Q3.19 14.69 2.86 14.73Q2.53 14.77 2.21 14.77L2.21 14.77Q1.89 14.77 1.65 14.72Q1.40 14.67 1.24 14.55Q1.08 14.42 0.99 14.20Q0.91 13.97 0.91 13.61L0.91 13.61L0.91 7.01Q0.91 6.72 1.07 6.56Q1.23 6.40 1.51 6.30L1.51 6.30Q1.99 6.13 2.62 6.06Q3.25 5.98 3.96 5.98L3.96 5.98Q5.89 5.98 6.87 6.79Q7.85 7.60 7.85 8.99L7.85 8.99Q7.85 9.86 7.41 10.47Q6.96 11.09 6.34 11.42L6.34 11.42Q6.85 12.11 7.34 12.71Q7.83 13.31 8.11 13.80L8.11 13.80Q7.97 14.29 7.59 14.55Q7.22 14.81 6.76 14.81L6.76 14.81Q6.45 14.81 6.23 14.74Q6.01 14.67 5.84 14.55Q5.67 14.42 5.53 14.24Q5.39 14.06 5.26 13.85L5.26 13.85L4.09 11.96ZM3.33 10.09L4.23 10.09Q4.76 10.09 5.07 9.82Q5.38 9.55 5.38 9.02L5.38 9.02Q5.38 8.48 5.03 8.21Q4.69 7.94 3.95 7.94L3.95 7.94Q3.74 7.94 3.61 7.95Q3.49 7.97 3.33 7.99L3.33 7.99L3.33 10.09ZM12.61 11.96L11.87 11.96L11.87 14.64Q11.72 14.69 11.39 14.73Q11.06 14.77 10.74 14.77L10.74 14.77Q10.42 14.77 10.17 14.72Q9.93 14.67 9.77 14.55Q9.60 14.42 9.52 14.20Q9.44 13.97 9.44 13.61L9.44 13.61L9.44 7.01Q9.44 6.72 9.60 6.56Q9.76 6.40 10.04 6.30L10.04 6.30Q10.51 6.13 11.14 6.06Q11.77 5.98 12.49 5.98L12.49 5.98Q14.42 5.98 15.40 6.79Q16.38 7.60 16.38 8.99L16.38 8.99Q16.38 9.86 15.93 10.47Q15.48 11.09 14.87 11.42L14.87 11.42Q15.37 12.11 15.86 12.71Q16.35 13.31 16.63 13.80L16.63 13.80Q16.49 14.29 16.12 14.55Q15.75 14.81 15.29 14.81L15.29 14.81Q14.98 14.81 14.76 14.74Q14.53 14.67 14.36 14.55Q14.20 14.42 14.06 14.24Q13.92 14.06 13.79 13.85L13.79 13.85L12.61 11.96ZM11.86 10.09L12.75 10.09Q13.29 10.09 13.59 9.82Q13.90 9.55 13.90 9.02L13.90 9.02Q13.90 8.48 13.56 8.21Q13.22 7.94 12.47 7.94L12.47 7.94Q12.26 7.94 12.14 7.95Q12.01 7.97 11.86 7.99L11.86 7.99L11.86 10.09ZM20.34 11.24L20.34 12.95Q20.54 13.01 20.85 13.03Q21.15 13.05 21.43 13.05L21.43 13.05Q21.99 13.05 22.36 12.82Q22.74 12.59 22.74 12.10L22.74 12.10Q22.74 11.63 22.43 11.44Q22.12 11.24 21.49 11.24L21.49 11.24L20.34 11.24ZM20.34 7.88L20.34 9.53L21.36 9.53Q21.97 9.53 22.24 9.31Q22.51 9.09 22.51 8.65L22.51 8.65Q22.51 8.27 22.20 8.05Q21.88 7.83 21.25 7.83L21.25 7.83Q21.04 7.83 20.77 7.84Q20.50 7.85 20.34 7.88L20.34 7.88ZM21.25 14.92L21.25 14.92Q21.01 14.92 20.69 14.91Q20.37 14.90 20.03 14.85Q19.68 14.81 19.35 14.75Q19.01 14.69 18.73 14.57L18.73 14.57Q17.96 14.28 17.96 13.55L17.96 13.55L17.96 7.01Q17.96 6.72 18.12 6.56Q18.28 6.40 18.56 6.30L18.56 6.30Q19.04 6.13 19.75 6.06Q20.47 5.98 21.22 5.98L21.22 5.98Q23.02 5.98 23.98 6.58Q24.95 7.18 24.95 8.44L24.95 8.44Q24.95 9.07 24.58 9.53Q24.22 9.98 23.60 10.19L23.60 10.19Q24.30 10.39 24.77 10.91Q25.24 11.42 25.24 12.21L25.24 12.21Q25.24 13.59 24.21 14.26Q23.18 14.92 21.25 14.92ZM26.45 12.00L26.45 7.99Q26.59 7.95 26.89 7.91Q27.19 7.87 27.51 7.87L27.51 7.87Q27.82 7.87 28.06 7.91Q28.31 7.95 28.48 8.08Q28.64 8.20 28.73 8.42Q28.83 8.64 28.83 8.99L28.83 8.99L28.83 12.00Q28.83 12.57 29.11 12.82Q29.39 13.06 29.92 13.06L29.92 13.06Q30.24 13.06 30.44 13.01Q30.65 12.95 30.76 12.89L30.76 12.89L30.76 7.99Q30.90 7.95 31.20 7.91Q31.50 7.87 31.82 7.87L31.82 7.87Q32.13 7.87 32.38 7.91Q32.62 7.95 32.79 8.08Q32.96 8.20 33.05 8.42Q33.14 8.64 33.14 8.99L33.14 8.99L33.14 13.24Q33.14 13.94 32.55 14.29L32.55 14.29Q32.06 14.60 31.38 14.76Q30.70 14.92 29.90 14.92L29.90 14.92Q29.15 14.92 28.51 14.76Q27.87 14.59 27.41 14.24Q26.95 13.89 26.70 13.34Q26.45 12.78 26.45 12.00L26.45 12.00ZM34.30 11.30L34.30 11.30Q34.30 10.37 34.58 9.70Q34.86 9.02 35.36 8.57Q35.85 8.12 36.52 7.90Q37.18 7.69 37.95 7.69L37.95 7.69Q38.23 7.69 38.50 7.74Q38.77 7.78 38.93 7.85L38.93 7.85L38.93 5.59Q39.07 5.54 39.38 5.50Q39.69 5.45 40.01 5.45L40.01 5.45Q40.32 5.45 40.56 5.49Q40.81 5.53 40.98 5.66Q41.15 5.78 41.23 6.00Q41.31 6.22 41.31 6.57L41.31 6.57L41.31 13.20Q41.31 13.86 40.70 14.25L40.70 14.25Q40.29 14.52 39.65 14.72Q39.00 14.92 38.16 14.92L38.16 14.92Q37.25 14.92 36.53 14.67Q35.81 14.42 35.31 13.94Q34.82 13.47 34.56 12.80Q34.30 12.14 34.30 11.30ZM38.28 9.55L38.28 9.55Q37.52 9.55 37.11 9.98Q36.71 10.42 36.71 11.30L36.71 11.30Q36.71 12.17 37.09 12.61Q37.46 13.05 38.18 13.05L38.18 13.05Q38.43 13.05 38.63 12.97Q38.84 12.89 38.95 12.80L38.95 12.80L38.95 9.72Q38.67 9.55 38.28 9.55ZM42.50 11.30L42.50 11.30Q42.50 10.37 42.78 9.70Q43.06 9.02 43.56 8.57Q44.06 8.12 44.72 7.90Q45.39 7.69 46.16 7.69L46.16 7.69Q46.44 7.69 46.70 7.74Q46.97 7.78 47.14 7.85L47.14 7.85L47.14 5.59Q47.28 5.54 47.59 5.50Q47.89 5.45 48.22 5.45L48.22 5.45Q48.52 5.45 48.77 5.49Q49.01 5.53 49.18 5.66Q49.35 5.78 49.43 6.00Q49.52 6.22 49.52 6.57L49.52 6.57L49.52 13.20Q49.52 13.86 48.90 14.25L48.90 14.25Q48.50 14.52 47.85 14.72Q47.21 14.92 46.37 14.92L46.37 14.92Q45.46 14.92 44.74 14.67Q44.02 14.42 43.52 13.94Q43.02 13.47 42.76 12.80Q42.50 12.14 42.50 11.30ZM46.48 9.55L46.48 9.55Q45.72 9.55 45.32 9.98Q44.91 10.42 44.91 11.30L44.91 11.30Q44.91 12.17 45.29 12.61Q45.67 13.05 46.38 13.05L46.38 13.05Q46.63 13.05 46.84 12.97Q47.04 12.89 47.15 12.80L47.15 12.80L47.15 9.72Q46.87 9.55 46.48 9.55ZM52.07 12.96L52.07 12.96Q51.91 12.61 51.74 12.18Q51.56 11.75 51.37 11.19Q51.18 10.63 50.98 9.91Q50.78 9.18 50.55 8.25L50.55 8.25Q50.75 8.05 51.08 7.90Q51.41 7.76 51.80 7.76L51.80 7.76Q52.29 7.76 52.61 7.96Q52.93 8.16 53.09 8.72L53.09 8.72L54.19 12.57L54.25 12.57Q54.42 12.10 54.58 11.54Q54.74 10.98 54.89 10.38Q55.05 9.79 55.18 9.19Q55.31 8.60 55.41 8.02L55.41 8.02Q55.92 7.76 56.52 7.76L56.52 7.76Q57.01 7.76 57.33 7.97Q57.65 8.18 57.65 8.69L57.65 8.69Q57.65 9.07 57.55 9.57Q57.46 10.07 57.30 10.63Q57.13 11.19 56.92 11.78Q56.70 12.38 56.46 12.95Q56.22 13.52 55.97 14.04Q55.72 14.55 55.48 14.95L55.48 14.95Q55.09 15.64 54.75 16.07Q54.42 16.51 54.11 16.75Q53.80 17.00 53.49 17.09Q53.19 17.18 52.85 17.18L52.85 17.18Q52.26 17.18 51.90 16.83Q51.53 16.48 51.46 15.92L51.46 15.92Q51.91 15.57 52.36 15.14Q52.81 14.71 53.17 14.27L53.17 14.27Q52.93 14.20 52.66 13.94Q52.39 13.68 52.07 12.96Z"></path></g><!----><!----></svg>