<svg data-v-fde0c5aa="" xmlns="http://www.w3.org/2000/svg" viewBox="0 0 300 300" class="iconLeft"><!----><defs data-v-fde0c5aa=""><!----></defs><rect data-v-fde0c5aa="" fill="#EDE9E5" x="0" y="0" width="300px" height="300px" class="logo-background-square"></rect><defs data-v-fde0c5aa=""><!----></defs><g data-v-fde0c5aa="" id="a733961d-a9df-484b-a4a1-2c80d72bae81" fill="#0FAAAB" transform="matrix(2.744630256547416,0,0,2.744630256547416,108.33173695714596,123.1026249254512)"><path d="M2.94 9.90L2.95 9.90L5.22 13.30L7.88 13.30L5.15 9.80C6.36 9.51 7.32 8.44 7.32 6.83C7.32 5.03 5.95 3.78 4.41 3.78L2.94 3.78L2.42 3.78L0.84 3.78L0.84 13.30L2.94 13.30ZM4.06 5.43C4.68 5.43 5.32 5.96 5.32 6.83C5.32 7.74 4.68 8.25 4.06 8.25L2.94 8.25L2.94 5.43ZM10.65 9.90L10.67 9.90L12.94 13.30L15.60 13.30L12.87 9.80C14.07 9.51 15.04 8.44 15.04 6.83C15.04 5.03 13.66 3.78 12.12 3.78L10.65 3.78L10.14 3.78L8.55 3.78L8.55 13.30L10.65 13.30ZM11.77 5.43C12.39 5.43 13.03 5.96 13.03 6.83C13.03 7.74 12.39 8.25 11.77 8.25L10.65 8.25L10.65 5.43ZM20.86 10.51C20.86 11.14 20.33 11.66 19.70 11.66L18.37 11.66L18.37 9.37L19.70 9.37C20.33 9.37 20.86 9.90 20.86 10.51ZM20.20 6.54C20.20 7.14 19.70 7.64 19.10 7.64L18.37 7.64L18.37 5.43L19.10 5.43C19.70 5.43 20.20 5.92 20.20 6.54ZM23.00 10.57C23.00 9.28 22.13 8.43 21.07 8.18C21.78 7.85 22.20 7.13 22.20 6.16C22.20 4.86 21.17 3.78 19.54 3.78L16.27 3.78L16.27 13.30L20.12 13.30C21.94 13.30 23.00 12.21 23.00 10.57ZM23.84 10.64C23.84 12.31 24.51 13.44 26.17 13.44C26.98 13.44 27.64 13.08 28.06 12.54L28.06 13.30L30.16 13.30L30.16 7.13L28.06 7.13L28.06 10.22C28.06 11.05 27.54 11.76 26.88 11.76C26.22 11.76 25.94 11.35 25.94 10.64L25.94 7.13L23.84 7.13ZM36.67 10.22C36.67 11.03 36.04 11.76 35.20 11.76C34.36 11.76 33.73 11.03 33.73 10.22C33.73 9.41 34.36 8.68 35.20 8.68C36.04 8.68 36.67 9.41 36.67 10.22ZM38.77 2.80L36.67 2.80L36.67 7.88C36.12 7.21 35.34 6.99 34.55 6.99C32.80 6.99 31.49 8.51 31.49 10.22C31.49 11.93 32.80 13.44 34.55 13.44C35.34 13.44 36.25 13.19 36.67 12.56L36.67 13.30L38.77 13.30ZM45.28 10.22C45.28 11.03 44.65 11.76 43.81 11.76C42.97 11.76 42.34 11.03 42.34 10.22C42.34 9.41 42.97 8.68 43.81 8.68C44.65 8.68 45.28 9.41 45.28 10.22ZM47.38 2.80L45.28 2.80L45.28 7.88C44.73 7.21 43.95 6.99 43.16 6.99C41.41 6.99 40.10 8.51 40.10 10.22C40.10 11.93 41.41 13.44 43.16 13.44C43.95 13.44 44.86 13.19 45.28 12.56L45.28 13.30L47.38 13.30ZM51.56 16.80L52.91 13.30L55.26 7.13L53.13 7.13L51.66 11.54L50.19 7.13L48.08 7.13L50.43 13.30L50.78 13.30L49.38 16.80Z"></path></g><defs data-v-fde0c5aa=""><!----></defs><g data-v-fde0c5aa="" id="7c9ec7d8-260b-4450-9768-8112c0d37b2f" stroke="none" fill="#0FAAAB" transform="matrix(1.309936965096766,0,0,1.309936965096766,40,121.18138973520799)"><g><path d="M31 10c-2.757 0-5 2.243-5 5s2.243 5 5 5 5-2.243 5-5-2.243-5-5-5zm0 8a3 3 0 110-6 3 3 0 010 6zM27 31a1 1 0 01-1 1h-3v1a1 1 0 01-1 1h-4a1 1 0 01-1-1v-5h-4.95c.503 5.046 4.773 9 9.95 9s9.447-3.954 9.95-9H27v3M7.974 18.339a7.668 7.668 0 01-.664-.884c-.733-1.146-.979-2.189-.754-3.189.398-1.768 2.135-2.857 4.146-4.118l1.472-.938c1.736-1.127 3.235-2.099 4.77-2.099 1.292 0 2.399.706 3.288 2.102.059.091.105.186.159.279l10.593-7.566A21.853 21.853 0 0022 0C9.869 0 0 9.869 0 22c0 .878.057 1.741.158 2.593l7.816-6.254"></path><path d="M32.987 2.952L21.18 11.385c.822 3.134-.413 6.578-3.287 8.412a7.647 7.647 0 01-8.399-.111l-8.95 7.16C2.758 36.652 11.534 44 22 44c12.131 0 22-9.869 22-22 0-8.13-4.437-15.24-11.013-19.048zM22 39c-6.617 0-12-5.383-12-12a1 1 0 011-1h22a1 1 0 011 1c0 6.617-5.383 12-12 12zm9-17c-3.859 0-7-3.141-7-7s3.141-7 7-7 7 3.141 7 7-3.141 7-7 7z"></path></g></g><!----></svg>