<svg data-v-423bf9ae="" xmlns="http://www.w3.org/2000/svg" viewBox="0 0 233.22857946863033 60" class="font"><!----><!----><!----><g data-v-423bf9ae="" id="0ca26ae9-47ef-4aa4-8d81-b5b7ab8713cc" fill="black" transform="matrix(4.285714577655423,0,0,4.285714577655423,-3.5999980970307774,-12.000000374657809)"><path d="M2.94 9.90L2.95 9.90L5.22 13.30L7.88 13.30L5.15 9.80C6.36 9.51 7.32 8.44 7.32 6.83C7.32 5.03 5.95 3.78 4.41 3.78L2.94 3.78L2.42 3.78L0.84 3.78L0.84 13.30L2.94 13.30ZM4.06 5.43C4.68 5.43 5.32 5.96 5.32 6.83C5.32 7.74 4.68 8.25 4.06 8.25L2.94 8.25L2.94 5.43ZM10.65 9.90L10.67 9.90L12.94 13.30L15.60 13.30L12.87 9.80C14.07 9.51 15.04 8.44 15.04 6.83C15.04 5.03 13.66 3.78 12.12 3.78L10.65 3.78L10.14 3.78L8.55 3.78L8.55 13.30L10.65 13.30ZM11.77 5.43C12.39 5.43 13.03 5.96 13.03 6.83C13.03 7.74 12.39 8.25 11.77 8.25L10.65 8.25L10.65 5.43ZM20.86 10.51C20.86 11.14 20.33 11.66 19.70 11.66L18.37 11.66L18.37 9.37L19.70 9.37C20.33 9.37 20.86 9.90 20.86 10.51ZM20.20 6.54C20.20 7.14 19.70 7.64 19.10 7.64L18.37 7.64L18.37 5.43L19.10 5.43C19.70 5.43 20.20 5.92 20.20 6.54ZM23.00 10.57C23.00 9.28 22.13 8.43 21.07 8.18C21.78 7.85 22.20 7.13 22.20 6.16C22.20 4.86 21.17 3.78 19.54 3.78L16.27 3.78L16.27 13.30L20.12 13.30C21.94 13.30 23.00 12.21 23.00 10.57ZM23.84 10.64C23.84 12.31 24.51 13.44 26.17 13.44C26.98 13.44 27.64 13.08 28.06 12.54L28.06 13.30L30.16 13.30L30.16 7.13L28.06 7.13L28.06 10.22C28.06 11.05 27.54 11.76 26.88 11.76C26.22 11.76 25.94 11.35 25.94 10.64L25.94 7.13L23.84 7.13ZM36.67 10.22C36.67 11.03 36.04 11.76 35.20 11.76C34.36 11.76 33.73 11.03 33.73 10.22C33.73 9.41 34.36 8.68 35.20 8.68C36.04 8.68 36.67 9.41 36.67 10.22ZM38.77 2.80L36.67 2.80L36.67 7.88C36.12 7.21 35.34 6.99 34.55 6.99C32.80 6.99 31.49 8.51 31.49 10.22C31.49 11.93 32.80 13.44 34.55 13.44C35.34 13.44 36.25 13.19 36.67 12.56L36.67 13.30L38.77 13.30ZM45.28 10.22C45.28 11.03 44.65 11.76 43.81 11.76C42.97 11.76 42.34 11.03 42.34 10.22C42.34 9.41 42.97 8.68 43.81 8.68C44.65 8.68 45.28 9.41 45.28 10.22ZM47.38 2.80L45.28 2.80L45.28 7.88C44.73 7.21 43.95 6.99 43.16 6.99C41.41 6.99 40.10 8.51 40.10 10.22C40.10 11.93 41.41 13.44 43.16 13.44C43.95 13.44 44.86 13.19 45.28 12.56L45.28 13.30L47.38 13.30ZM51.56 16.80L52.91 13.30L55.26 7.13L53.13 7.13L51.66 11.54L50.19 7.13L48.08 7.13L50.43 13.30L50.78 13.30L49.38 16.80Z"></path></g><!----><!----></svg>